<?xml version="1.0" standalone="no"?>
<!DOCTYPE svg PUBLIC "-//W3C//DTD SVG 20010904//EN"
 "http://www.w3.org/TR/2001/REC-SVG-20010904/DTD/svg10.dtd">
<svg version="1.0" xmlns="http://www.w3.org/2000/svg"
 width="351.000000pt" height="362.000000pt" viewBox="0 0 351.000000 362.000000"
 preserveAspectRatio="xMidYMid meet">

<g transform="translate(0.000000,362.000000) scale(0.100000,-0.100000)"
fill="#000000" stroke="none">
<path d="M1520 3585 c-424 -58 -802 -260 -1072 -572 -103 -120 -190 -248 -253
-373 -47 -94 -115 -259 -115 -280 0 -22 19 1 25 31 4 17 9 28 12 25 3 -2 -4
-33 -15 -68 -20 -60 -42 -162 -61 -276 -5 -29 -8 -99 -8 -155 0 -56 2 -82 4
-57 5 59 31 258 38 290 3 14 8 39 11 55 6 32 42 144 43 135 1 -3 -10 -55 -24
-115 -26 -117 -50 -328 -43 -385 4 -29 5 -26 6 15 6 167 58 434 117 590 40
105 147 299 223 400 151 203 393 397 635 510 220 102 423 146 674 146 185 -1
324 -24 518 -87 282 -93 586 -307 752 -529 249 -333 351 -644 347 -1050 -3
-360 -91 -644 -295 -949 -79 -119 -92 -151 -43 -105 l27 24 -24 -43 c-50 -92
-236 -260 -409 -371 -35 -23 -67 -46 -70 -51 -3 -5 -30 -23 -60 -40 -57 -31
-54 -43 3 -14 329 169 608 439 747 725 28 57 55 112 60 121 5 9 19 43 31 75
97 268 127 431 127 683 0 74 1 153 2 175 l3 40 8 -45 c13 -75 10 -302 -6 -422
-33 -252 -70 -377 -172 -587 -166 -339 -436 -613 -772 -781 -136 -68 -342
-133 -493 -155 -54 -8 -66 -23 -15 -19 49 5 -89 -24 -158 -32 -105 -13 -27
-16 94 -4 601 61 1139 441 1400 990 77 162 135 356 124 414 -4 19 -2 27 4 23
24 -15 47 217 39 393 -17 403 -117 699 -336 996 -379 512 -1023 792 -1630 709z
m1679 -871 c12 -20 20 -38 18 -40 -2 -2 -14 14 -26 36 -28 50 -21 53 8 4z
m100 -209 c0 -5 -6 1 -14 15 -8 14 -14 30 -14 35 0 6 6 -1 14 -15 8 -14 14
-29 14 -35z m-159 -1719 c0 -2 -8 -10 -17 -17 -16 -13 -17 -12 -4 4 13 16 21
21 21 13z m-42 -53 c-86 -104 -154 -174 -231 -240 -112 -95 -187 -152 -187
-140 0 3 33 29 73 58 87 65 211 180 291 272 32 37 61 67 64 67 3 0 -2 -8 -10
-17z"/>
<path d="M1249 2849 c0 -2 -2 -11 -4 -20 -1 -9 -46 -92 -99 -183 -53 -91 -96
-168 -96 -171 0 -3 45 -5 100 -5 92 0 100 -1 100 -19 0 -24 -24 -28 -245 -36
-88 -4 -162 -8 -164 -10 -2 -2 7 -26 20 -52 29 -59 4 -55 367 -61 74 -2 92 -5
92 -17 0 -12 -14 -15 -66 -15 -59 0 -65 -2 -59 -17 4 -10 9 -33 12 -50 l6 -33
112 0 c91 0 114 3 119 15 4 11 21 15 65 15 40 0 65 -5 75 -15 8 -8 26 -15 39
-15 21 0 26 6 32 39 11 67 74 108 139 90 44 -12 76 -52 76 -95 l0 -34 224 0
224 0 7 39 c21 124 192 124 211 0 6 -38 7 -39 50 -39 l44 0 0 53 c0 116 -54
164 -212 186 -60 8 -74 15 -130 61 -35 29 -71 61 -81 71 -16 17 -36 19 -236
19 l-219 0 -36 -40 c-20 -22 -36 -45 -36 -50 0 -6 -16 -26 -35 -46 -23 -23
-35 -44 -35 -62 0 -15 -9 -44 -20 -65 -11 -21 -20 -43 -19 -50 3 -27 -2 -37
-20 -37 -11 0 -23 5 -26 10 -3 6 -24 10 -46 10 -32 0 -39 3 -39 20 0 17 -7 20
-50 20 -38 0 -50 4 -50 15 0 9 9 15 24 15 29 0 115 67 139 109 10 17 15 31 10
32 -4 1 -63 0 -131 -1 l-123 -2 1 207 c1 114 -1 209 -4 213 -3 3 -6 3 -7 1z
m1001 -404 l44 -45 -141 0 c-153 0 -154 0 -146 58 l5 32 97 0 97 0 44 -45z
m-780 -39 c0 -8 -4 -17 -9 -21 -12 -7 -24 12 -16 25 9 15 25 12 25 -4z"/>
<path d="M536 1954 c-14 -14 -16 -83 -16 -614 0 -531 2 -600 16 -614 14 -14
137 -16 1204 -16 1149 0 1189 1 1202 19 10 15 12 135 8 620 -4 520 -7 603 -20
611 -9 6 -470 10 -1197 10 -1061 0 -1183 -2 -1197 -16z m2389 -614 l0 -605
-1190 0 -1190 0 -3 595 c-1 327 0 601 3 608 3 10 247 12 1192 10 l1188 -3 0
-605z"/>
<path d="M1336 1861 c-4 -5 -8 -106 -10 -224 -5 -237 -7 -227 58 -227 66 0
126 13 126 26 0 10 -17 14 -65 14 l-65 0 0 204 c0 177 -2 205 -16 210 -20 8
-22 8 -28 -3z"/>
<path d="M692 1840 c-35 -33 -52 -74 -63 -162 -14 -99 -7 -237 13 -249 16 -11
43 -6 42 7 -1 5 -4 33 -8 62 l-7 52 60 0 60 0 3 -72 c3 -65 5 -73 22 -73 31 0
38 51 34 231 -3 147 -5 165 -24 191 -28 37 -98 45 -132 13z m87 -19 c6 -10 14
-69 17 -130 l7 -111 -35 0 c-20 0 -49 3 -65 6 l-29 6 7 70 c5 38 13 86 20 106
21 66 58 91 78 53z"/>
<path d="M933 1850 c-21 -8 -40 -46 -29 -57 3 -3 17 4 32 16 28 22 87 28 113
12 11 -7 13 -46 10 -207 -4 -194 -3 -199 16 -199 27 0 33 47 34 243 l1 152 28
-6 c15 -3 33 -8 41 -10 22 -7 79 15 85 33 10 26 -11 39 -32 20 -23 -21 -51
-21 -122 -2 -61 16 -143 19 -177 5z"/>
<path d="M1622 1835 c-45 -37 -66 -124 -67 -266 0 -121 10 -153 44 -147 13 3
15 15 13 66 l-4 63 59 -3 58 -3 -4 -67 c-2 -57 0 -69 14 -75 37 -14 45 21 45
196 0 177 -9 235 -40 251 -34 18 -87 12 -118 -15z m89 -17 c6 -12 14 -70 17
-130 l5 -108 -49 0 c-74 0 -78 6 -70 90 12 131 64 210 97 148z"/>
<path d="M1854 1847 c-2 -7 -3 -102 -2 -212 l3 -200 25 0 25 0 -4 151 c-2 83
0 154 5 157 5 3 50 -65 99 -151 77 -134 94 -157 117 -160 l26 -3 4 203 c2 112
2 209 0 216 -3 7 -14 12 -26 10 -20 -3 -21 -9 -26 -163 l-5 -160 -71 120 c-39
66 -82 139 -95 162 -24 43 -63 59 -75 30z"/>
<path d="M2245 1848 c-23 -13 -35 -28 -35 -45 0 -19 17 -16 41 8 16 16 30 19
67 17 l47 -3 0 -205 c0 -198 1 -205 20 -205 27 0 34 44 34 231 1 83 3 153 7
156 3 3 21 2 40 -2 65 -15 136 23 104 54 -8 8 -14 6 -21 -6 -12 -22 -55 -23
-129 -3 -65 17 -147 19 -175 3z"/>
<path d="M2698 1840 c-14 -11 -33 -38 -42 -60 -24 -61 -38 -209 -26 -282 10
-67 20 -84 44 -75 13 5 15 17 9 67 l-6 60 63 0 63 0 -7 -70 c-6 -59 -5 -71 9
-76 33 -13 43 14 50 129 8 140 -6 280 -30 307 -24 27 -93 27 -127 0z m93 -35
c4 -16 7 -74 8 -127 l1 -98 -55 0 c-68 0 -72 7 -57 107 15 95 45 155 75 151
15 -2 24 -12 28 -33z"/>
<path d="M693 1260 c-37 -22 -60 -61 -69 -119 -9 -54 9 -79 85 -119 51 -28 61
-38 67 -67 7 -41 -11 -101 -34 -110 -22 -8 -48 24 -62 76 -9 32 -15 39 -35 39
-29 0 -31 -15 -11 -64 26 -63 101 -95 156 -66 31 17 51 108 34 155 -4 9 -29
27 -56 41 -69 35 -88 57 -88 102 0 47 34 122 55 122 20 0 45 -58 45 -105 0
-34 2 -36 28 -33 36 4 40 41 13 103 -29 65 -72 80 -128 45z"/>
<path d="M997 1250 c-76 -67 -122 -260 -80 -340 34 -65 119 -99 174 -70 16 9
49 58 49 73 0 3 -7 7 -15 11 -20 7 -45 -3 -45 -19 0 -7 -8 -23 -18 -35 -16
-20 -21 -21 -41 -11 -29 16 -61 69 -61 103 0 25 3 27 53 30 68 4 67 22 -2 26
l-54 3 7 47 c3 26 20 76 38 112 27 53 38 66 60 68 22 3 28 -2 36 -30 6 -18 12
-44 14 -58 2 -17 9 -25 23 -25 15 0 21 8 23 34 10 99 -86 147 -161 81z"/>
<path d="M1292 1255 c-43 -36 -62 -102 -69 -235 -7 -142 2 -184 40 -188 24 -3
27 -1 23 20 -3 13 -7 41 -8 63 l-3 40 60 0 60 0 -3 -72 c-3 -72 -3 -73 22 -73
36 0 41 26 41 220 0 216 -13 250 -99 250 -22 0 -45 -9 -64 -25z m89 -11 c8
-10 14 -57 17 -135 l5 -120 -59 3 -59 3 -3 55 c-4 62 12 130 40 178 22 35 39
40 59 16z"/>
<path d="M1539 1265 c-33 -18 -46 -55 -19 -55 10 0 20 6 23 14 7 17 67 29 103
20 l27 -7 -6 -208 c-5 -197 -4 -207 13 -212 11 -3 24 0 29 7 5 6 13 100 17
208 l7 196 24 -9 c41 -15 91 -11 113 11 35 35 15 67 -21 34 -23 -21 -53 -20
-136 1 -71 19 -140 19 -174 0z"/>
<path d="M1961 1268 c-29 -16 -48 -44 -38 -55 5 -4 16 -2 25 5 35 25 67 33
105 26 l39 -6 -7 -190 c-4 -105 -8 -198 -9 -207 -1 -10 8 -17 25 -19 26 -3 26
-2 32 80 4 46 7 136 7 201 l0 118 55 -6 c62 -8 105 10 105 45 0 24 -13 26 -30
5 -14 -17 -76 -20 -116 -5 -46 18 -166 23 -193 8z"/>
<path d="M2360 1051 l0 -231 94 0 c52 0 97 4 100 9 12 18 -22 30 -79 28 l-60
-2 0 210 0 210 -27 3 -28 3 0 -230z"/>
<path d="M2679 1241 c-54 -58 -83 -138 -83 -236 -1 -91 13 -122 67 -155 41
-25 108 -26 129 -2 31 35 41 64 27 73 -20 12 -32 6 -46 -23 -20 -40 -38 -51
-63 -38 -29 15 -60 69 -60 103 0 26 2 27 55 27 42 0 55 3 55 15 0 12 -13 15
-55 15 -62 0 -64 3 -44 75 24 89 67 155 100 155 18 0 39 -46 39 -86 0 -28 13
-37 41 -29 17 6 19 12 14 38 -16 81 -42 107 -107 107 -23 0 -41 -10 -69 -39z"/>
<path d="M240 946 c0 -12 87 -142 134 -201 90 -111 285 -304 309 -305 4 0 -12
17 -35 37 -144 125 -257 251 -351 393 -32 47 -57 81 -57 76z"/>
<path d="M2786 615 c-11 -8 -15 -15 -9 -15 6 0 16 7 23 15 16 19 11 19 -14 0z"/>
<path d="M880 372 c0 -10 21 -32 32 -32 16 0 8 19 -12 30 -11 6 -20 7 -20 2z"/>
<path d="M1003 295 c20 -14 42 -23 49 -19 7 4 -2 14 -23 25 -51 27 -69 23 -26
-6z"/>
<path d="M1104 256 c11 -9 25 -16 32 -16 7 0 21 -3 31 -6 10 -3 7 1 -7 9 -14
8 -36 18 -50 21 -24 7 -24 6 -6 -8z"/>
<path d="M1258 203 c7 -3 16 -2 19 1 4 3 -2 6 -13 5 -11 0 -14 -3 -6 -6z"/>
<path d="M1248 143 c7 -3 16 -2 19 1 4 3 -2 6 -13 5 -11 0 -14 -3 -6 -6z"/>
<path d="M1288 133 c7 -3 16 -2 19 1 4 3 -2 6 -13 5 -11 0 -14 -3 -6 -6z"/>
<path d="M1753 113 c20 -2 54 -2 75 0 20 2 3 4 -38 4 -41 0 -58 -2 -37 -4z"/>
<path d="M1878 113 c7 -3 16 -2 19 1 4 3 -2 6 -13 5 -11 0 -14 -3 -6 -6z"/>
<path d="M1836 91 c5 -4 32 -5 59 -1 l50 7 -59 2 c-35 0 -56 -3 -50 -8z"/>
<path d="M1743 83 c9 -2 25 -2 35 0 9 3 1 5 -18 5 -19 0 -27 -2 -17 -5z"/>
</g>
</svg>