<?xml version="1.0" standalone="no"?>
<!DOCTYPE svg PUBLIC "-//W3C//DTD SVG 20010904//EN"
 "http://www.w3.org/TR/2001/REC-SVG-20010904/DTD/svg10.dtd">
<svg version="1.0" xmlns="http://www.w3.org/2000/svg"
 width="351.000000pt" height="362.000000pt" viewBox="0 0 351.000000 362.000000"
 preserveAspectRatio="xMidYMid meet">

<g transform="translate(0.000000,362.000000) scale(0.100000,-0.100000)"
fill="#000000" stroke="none">
<path d="M0 1810 l0 -1810 1755 0 1755 0 0 1810 0 1810 -1755 0 -1755 0 0
-1810z m1947 1775 c273 -36 516 -125 743 -272 324 -211 588 -545 704 -893 69
-207 102 -443 93 -665 -6 -161 -26 -302 -39 -283 -6 8 -7 2 -3 -17 12 -65 -78
-324 -177 -505 -281 -514 -856 -878 -1418 -895 -124 -4 -106 6 40 23 60 7 41
8 -100 6 l-175 -3 140 8 c398 23 708 133 1012 357 125 93 366 348 346 368 -4
3 -1 6 5 6 6 0 21 14 33 32 14 18 17 28 8 24 -7 -4 -5 0 5 8 11 9 17 16 13 16
-8 0 53 102 67 112 6 4 7 8 3 8 -5 0 4 24 20 53 16 28 34 61 40 72 42 78 111
348 126 495 12 111 18 336 10 385 -7 41 -9 28 -9 -70 -2 -318 -40 -516 -156
-810 -116 -295 -376 -600 -660 -773 -86 -52 -204 -112 -220 -112 -7 1 13 14
45 31 31 16 57 33 57 38 0 5 40 34 90 65 166 105 323 248 410 372 32 45 27 42
-62 -40 -53 -50 -99 -97 -101 -107 -3 -9 -19 -20 -38 -24 -19 -4 -40 -12 -48
-19 -11 -8 -13 -8 -7 1 5 10 -211 13 -1038 15 -841 2 -1048 6 -1058 16 -19 19
-19 1535 0 1554 19 19 2165 19 2184 0 10 -10 14 -166 18 -759 l5 -746 71 84
c276 325 406 679 407 1111 1 417 -113 738 -384 1081 -51 64 -154 157 -269 243
-169 126 -283 185 -477 248 -375 121 -768 99 -1143 -63 -321 -140 -611 -407
-780 -719 -124 -229 -180 -427 -210 -742 l-9 -95 5 115 c5 135 24 260 58 385
14 49 24 91 22 93 -3 2 -7 -5 -9 -15 -38 -130 -48 -171 -62 -245 -9 -48 -22
-144 -29 -215 l-14 -128 -1 110 c-1 145 29 325 79 469 11 33 18 61 16 63 -2 2
-12 -18 -21 -46 -9 -28 -21 -53 -26 -56 -13 -9 -12 -5 26 101 282 779 1043
1253 1842 1149z m-522 -1002 c63 3 115 2 115 -1 0 -34 -100 -121 -137 -122
-14 0 -23 -6 -23 -15 0 -11 12 -15 45 -15 38 0 45 -3 45 -20 0 -13 7 -20 19
-20 10 0 40 -3 66 -7 43 -5 48 -4 42 11 -4 10 -1 32 7 49 8 18 20 51 26 75 6
23 15 42 20 42 6 0 24 23 41 50 l31 50 226 0 227 0 57 -49 c41 -35 69 -51 98
-55 22 -3 58 -9 80 -12 84 -12 141 -79 138 -159 l-2 -45 -43 0 c-41 0 -43 1
-43 31 0 45 -47 89 -95 89 -48 0 -95 -44 -95 -89 l0 -31 -205 0 -205 0 0 31
c0 45 -47 89 -95 89 -48 0 -95 -44 -95 -89 0 -28 -3 -31 -29 -31 -17 0 -33 5
-36 10 -3 6 -35 10 -71 10 -36 0 -64 -4 -64 -10 0 -6 -42 -10 -105 -10 l-105
0 0 26 c0 14 -5 34 -10 45 -10 18 -7 19 55 19 51 0 65 3 65 15 0 13 -26 15
-170 15 -144 0 -170 -2 -170 -15 0 -9 10 -15 26 -15 21 0 25 -3 18 -17 -4 -10
-8 -30 -8 -45 -1 -27 -2 -28 -63 -28 l-63 0 0 65 c0 37 4 65 10 65 6 0 10 -9
10 -20 0 -15 7 -20 25 -20 31 0 33 22 3 35 -22 10 -57 80 -45 91 3 3 83 9 179
14 95 5 174 9 176 10 1 0 2 9 2 20 0 17 -8 20 -90 22 l-90 3 90 157 c50 87 91
163 92 170 2 7 4 -74 5 -181 l3 -194 115 6z m735 97 c10 -6 -59 -10 -203 -10
-143 0 -216 3 -212 10 8 13 395 13 415 0z m-928 -273 c30 -57 -8 -127 -69
-127 -43 0 -83 38 -83 78 0 36 33 79 63 84 33 6 76 -11 89 -35z m590 16 c39
-35 29 -110 -18 -132 -49 -22 -88 -10 -112 36 -17 32 -15 57 8 86 30 38 84 43
122 10z m600 0 c39 -35 29 -110 -18 -132 -49 -22 -88 -10 -112 36 -17 32 -15
57 8 86 30 38 84 43 122 10z m-2166 -1490 c59 -103 172 -244 288 -358 114
-114 129 -133 42 -55 -99 88 -214 218 -282 320 -42 61 -87 140 -81 140 3 0 18
-21 33 -47z m434 -488 c11 -13 10 -14 -4 -9 -9 3 -16 10 -16 15 0 13 6 11 20
-6z m40 -30 c11 -13 10 -14 -4 -9 -9 3 -16 10 -16 15 0 13 6 11 20 -6z m510
-262 c30 -11 31 -12 6 -8 -16 4 -43 13 -60 20 -23 11 -25 13 -6 8 14 -3 41
-12 60 -20z m657 -39 c-3 -3 -12 -4 -19 -1 -8 3 -5 6 6 6 11 1 17 -2 13 -5z"/>
<path d="M1998 3553 c7 -3 16 -2 19 1 4 3 -2 6 -13 5 -11 0 -14 -3 -6 -6z"/>
<path d="M2098 3533 c7 -3 16 -2 19 1 4 3 -2 6 -13 5 -11 0 -14 -3 -6 -6z"/>
<path d="M2138 3523 c7 -3 16 -2 19 1 4 3 -2 6 -13 5 -11 0 -14 -3 -6 -6z"/>
<path d="M2178 3513 c7 -3 16 -2 19 1 4 3 -2 6 -13 5 -11 0 -14 -3 -6 -6z"/>
<path d="M2825 3160 c10 -11 20 -20 23 -20 3 0 -3 9 -13 20 -10 11 -20 20 -23
20 -3 0 3 -9 13 -20z"/>
<path d="M3206 2687 c3 -10 9 -15 12 -12 3 3 0 11 -7 18 -10 9 -11 8 -5 -6z"/>
<path d="M3280 2535 c0 -5 5 -17 10 -25 5 -8 10 -10 10 -5 0 6 -5 17 -10 25
-5 8 -10 11 -10 5z"/>
<path d="M655 2148 c-3 -7 -4 -355 -3 -773 l3 -760 1084 0 c955 0 1085 2 1089
15 5 13 3 13 -14 0 -18 -14 -18 -14 -1 6 16 19 17 68 15 770 l-3 749 -1083 3
c-861 2 -1084 0 -1087 -10z m267 -119 c15 -28 18 -61 18 -179 0 -173 -4 -190
-37 -190 -24 0 -25 2 -21 63 l3 62 -54 3 -53 3 7 -61 c7 -60 7 -62 -16 -58
-32 4 -42 52 -36 168 6 112 19 159 53 199 43 51 108 46 136 -10z m486 42 c11
-6 13 -47 10 -190 l-3 -181 63 0 c46 0 62 -4 62 -14 0 -17 -31 -26 -90 -26
-94 0 -88 -14 -83 203 3 106 6 198 8 205 5 14 15 15 33 3z m353 -35 c16 -27
19 -51 19 -189 0 -167 -7 -199 -40 -190 -17 5 -19 13 -17 67 l2 61 -50 0 -50
0 3 -58 c4 -56 3 -59 -19 -55 -32 4 -42 58 -35 173 6 102 27 173 59 203 43 39
100 34 128 -12z m970 0 c16 -27 19 -51 19 -189 0 -167 -7 -199 -40 -190 -17 5
-19 13 -17 67 l2 61 -50 0 -50 0 4 -58 c3 -56 2 -59 -20 -55 -32 4 -42 57 -35
173 6 102 27 173 59 203 43 39 100 34 128 -12z m-1544 17 c70 -16 73 -16 93 2
15 14 23 16 32 7 9 -9 7 -17 -8 -33 -16 -18 -27 -20 -70 -17 l-51 4 -7 -170
c-4 -94 -11 -175 -16 -180 -5 -5 -16 -6 -25 -2 -16 6 -16 23 -10 182 6 145 5
178 -6 185 -24 15 -75 10 -101 -11 -39 -30 -53 -5 -18 30 25 25 88 27 187 3z
m788 -126 l80 -139 7 39 c4 21 7 84 7 141 l1 102 27 0 26 0 -6 -190 c-3 -104
-8 -194 -11 -199 -16 -25 -48 12 -126 147 l-85 147 -3 -148 c-3 -147 -3 -148
-25 -145 -22 3 -22 6 -25 183 -1 98 0 185 3 193 3 7 15 12 27 10 17 -2 42 -36
103 -141z m417 122 c51 -12 59 -11 76 4 24 22 32 21 32 -2 0 -32 -26 -44 -85
-39 l-55 5 -1 -131 c-1 -175 -8 -221 -34 -221 -19 0 -20 7 -20 185 l0 185 -48
-1 c-34 0 -51 -5 -61 -20 -11 -14 -18 -16 -26 -8 -8 8 -5 18 11 38 21 27 25
28 88 23 36 -2 92 -11 123 -18z m-1550 -594 c4 -49 5 -226 2 -393 l-7 -304
119 3 c66 2 125 0 132 -5 18 -11 14 -44 -7 -56 -20 -10 -290 -14 -327 -4 -20
5 -20 9 -16 417 2 227 5 418 8 425 2 9 18 12 46 10 l43 -3 7 -90z m1795 67
c87 -45 118 -150 110 -382 -5 -161 -27 -278 -65 -344 -37 -65 -179 -104 -280
-77 -54 15 -106 69 -129 135 -27 76 -24 362 4 463 34 121 93 199 170 223 45
15 144 5 190 -18z m-1287 -6 c0 -7 -8 -16 -19 -19 -16 -4 -19 -21 -25 -208 -3
-112 -9 -282 -13 -376 -5 -156 -4 -173 11 -173 21 0 21 -26 0 -34 -29 -11
-154 6 -154 20 0 8 6 14 14 14 9 0 16 17 20 53 4 40 21 577 21 682 0 12 -9 21
-24 25 -14 3 -26 11 -29 18 -3 9 22 12 97 12 79 0 101 -3 101 -14z m196 6 c5
-4 62 -96 125 -204 85 -147 117 -194 125 -185 6 7 61 96 123 198 118 198 131
210 188 188 l23 -9 0 -394 c0 -288 -3 -397 -12 -402 -13 -8 -78 -7 -87 2 -3 3
-8 139 -11 302 l-5 296 -74 -124 c-101 -171 -116 -190 -150 -190 -15 0 -34 6
-43 13 -9 6 -55 80 -103 162 -48 83 -89 152 -92 155 -3 3 -3 -131 -1 -297 3
-166 2 -307 -2 -313 -8 -13 -72 -16 -89 -5 -12 7 -16 770 -5 799 6 17 69 22
90 8z"/>
<path d="M825 2026 c-21 -31 -31 -69 -40 -144 l-7 -62 57 0 58 0 -6 106 c-3
74 -9 109 -18 115 -21 13 -27 11 -44 -15z"/>
<path d="M1678 2039 c-20 -11 -43 -86 -53 -166 l-6 -53 56 0 55 0 -1 83 c-2
131 -13 159 -51 136z"/>
<path d="M2648 2039 c-20 -11 -44 -88 -52 -166 l-5 -53 54 0 55 0 -1 83 c-2
131 -13 159 -51 136z"/>
<path d="M2470 1468 c-94 -48 -113 -117 -108 -391 3 -170 6 -197 25 -239 28
-61 61 -82 116 -75 60 8 91 46 112 139 29 125 38 267 26 375 -22 184 -73 241
-171 191z"/>
<path d="M3421 1384 c0 -11 3 -14 6 -6 3 7 2 16 -1 19 -3 4 -6 -2 -5 -13z"/>
<path d="M3134 793 c-15 -20 -23 -33 -16 -29 13 8 56 66 49 66 -3 0 -17 -17
-33 -37z"/>
<path d="M3034 669 c-70 -82 -171 -176 -270 -251 -30 -22 -54 -43 -54 -45 0
-8 63 41 157 120 83 69 151 139 212 216 55 70 28 45 -45 -40z"/>
<path d="M2038 103 c6 -2 18 -2 25 0 6 3 1 5 -13 5 -14 0 -19 -2 -12 -5z"/>
<path d="M1983 93 c9 -2 23 -2 30 0 6 3 -1 5 -18 5 -16 0 -22 -2 -12 -5z"/>
<path d="M1980 2600 l0 -40 132 0 132 0 -39 40 -39 40 -93 0 -93 0 0 -40z"/>
<path d="M1472 2558 c5 -15 28 -18 29 -3 0 6 -7 12 -17 13 -10 3 -15 -1 -12
-10z"/>
<path d="M1138 2399 c-35 -20 -19 -79 21 -79 49 0 68 42 33 73 -21 19 -30 20
-54 6z"/>
<path d="M1738 2399 c-36 -21 -16 -79 27 -79 44 0 63 60 26 80 -24 12 -31 12
-53 -1z"/>
<path d="M2338 2399 c-36 -21 -16 -79 27 -79 44 0 63 60 26 80 -24 12 -31 12
-53 -1z"/>
</g>
</svg>
